<svg id="Capa_1" enable-background="new 0 0 512 512" height="512" viewBox="0 0 512 512" width="512" xmlns="http://www.w3.org/2000/svg"><g><g><path d="m482 90h-226-226l-30 30v377c0 8.291 6.709 15 15 15h241 241c8.291 0 15-6.709 15-15v-377z" fill="#edf5ff"/><path d="m512 497v-377l-30-30h-226v422h241c8.291 0 15-6.709 15-15z" fill="#d5e8fe"/><path d="m497 0h-241-241c-8.291 0-15 6.709-15 15v105h256 256v-105c0-8.291-6.709-15-15-15z" fill="#47568c"/><path d="m512 15c0-8.291-6.709-15-15-15h-241v120h256z" fill="#29376d"/><g fill="#73bcff"><circle cx="436" cy="60" r="15"/><circle cx="376" cy="60" r="15"/><circle cx="316" cy="60" r="15"/></g></g><path d="m384.994 274.003-120-90c-2.666-2.007-5.83-3.01-8.994-3.01s-6.328 1.003-8.994 3.01l-120 90c-3.779 2.827-6.006 7.28-6.006 11.997v30c0 8.291 6.709 15 15 15h15v105c0 8.291 6.709 15 15 15h60c8.291 0 15-6.709 15-15v-75h15 15v75c0 8.291 6.709 15 15 15h60c8.291 0 15-6.709 15-15v-105h15c8.291 0 15-6.709 15-15v-30c0-4.717-2.227-9.17-6.006-11.997z" fill="#ff641a"/><path d="m271 436c0 8.291 6.709 15 15 15h60c8.291 0 15-6.709 15-15v-105h15c8.291 0 15-6.709 15-15v-30c0-4.717-2.227-9.17-6.006-11.997l-120-90c-2.666-2.007-5.83-3.01-8.994-3.01v180.007h15z" fill="#f03800"/><circle cx="256" cy="286" fill="#fed843" r="15"/><path d="m271 286c0-8.286-6.716-15-15-15v30c8.284 0 15-6.716 15-15z" fill="#fabe2c"/></g></svg>